<svg preserveAspectRatio="none" overflow="visible" style="display: block;" width="17" height="17" viewBox="0 0 17 17" fill="none" xmlns="http://www.w3.org/2000/svg">
<g id="clipboard-list">
<path id="Vector" d="M11.3331 2.83288H12.7496C13.1253 2.83288 13.4856 2.98215 13.7512 3.24785C14.0169 3.51354 14.1661 3.87391 14.1661 4.24966V14.1671C14.1661 14.5429 14.0169 14.9032 13.7512 15.1689C13.4856 15.4346 13.1253 15.5839 12.7496 15.5839H4.25042C3.87474 15.5839 3.51444 15.4346 3.24879 15.1689C2.98314 14.9032 2.8339 14.5429 2.8339 14.1671V4.24966C2.8339 3.87391 2.98314 3.51354 3.24879 3.24785C3.51444 2.98215 3.87474 2.83288 4.25042 2.83288H5.66695M8.5 7.79161H11.3331M8.5 11.3336H11.3331M5.66695 7.79161H5.67403M5.66695 11.3336H5.67403M6.37521 1.4161H10.6248C11.016 1.4161 11.3331 1.73326 11.3331 2.12449V3.54127C11.3331 3.9325 11.016 4.24966 10.6248 4.24966H6.37521C5.98405 4.24966 5.66695 3.9325 5.66695 3.54127V2.12449C5.66695 1.73326 5.98405 1.4161 6.37521 1.4161Z" stroke="#19736F" stroke-width="1.7" stroke-linecap="round"/>
</g>
</svg>
